<?xml version="1.0" standalone="no"?>
<!DOCTYPE svg PUBLIC "-//W3C//DTD SVG 20010904//EN"
 "http://www.w3.org/TR/2001/REC-SVG-20010904/DTD/svg10.dtd">
<svg version="1.0" xmlns="http://www.w3.org/2000/svg"
 width="901.000000pt" height="901.000000pt" viewBox="0 0 901.000000 901.000000"
 preserveAspectRatio="xMidYMid meet">
<metadata>
Created by potrace 1.14, written by Peter Selinger 2001-2017
</metadata>
<g transform="translate(0.000000,901.000000) scale(0.100000,-0.100000)"
fill="#000000" stroke="none">
<path d="M1062 5183 c-11 -10 -33 -43 -50 -73 -16 -30 -71 -134 -122 -230
-152 -283 -158 -294 -167 -297 -5 -2 -34 44 -64 102 -63 125 -80 145 -118 145
-41 0 -38 5 -176 -255 -27 -49 -76 -142 -110 -205 -246 -455 -255 -473 -248
-500 4 -14 14 -30 22 -37 23 -18 1749 -18 1772 0 38 28 33 53 -37 185 -164
311 -166 315 -206 304 -34 -8 -33 -49 2 -116 105 -198 150 -286 150 -289 0 -2
-145 -4 -323 -4 -318 0 -323 0 -333 21 -10 22 -100 194 -210 402 -65 123 -70
138 -55 163 7 11 14 9 34 -14 27 -32 82 -39 101 -13 18 25 83 95 94 101 5 4
37 -26 70 -66 143 -170 160 -187 188 -187 26 0 42 13 110 93 l40 48 20 -41
c20 -42 41 -55 73 -45 40 12 35 41 -30 163 -34 64 -79 149 -99 187 -88 166
-141 266 -184 350 -49 93 -76 125 -106 125 -10 0 -27 -8 -38 -17z m48 -121 c0
-5 25 -55 56 -113 31 -57 87 -165 126 -239 39 -74 75 -141 80 -147 7 -9 -5
-30 -42 -73 -43 -49 -55 -59 -65 -48 -6 7 -52 60 -101 118 -49 58 -95 110
-104 117 -32 26 -62 15 -121 -49 -50 -53 -60 -60 -73 -49 -9 8 -16 18 -16 23
0 15 244 467 253 468 4 0 7 -4 7 -8z m-517 -449 c25 -49 64 -122 86 -163 22
-41 64 -121 93 -177 l52 -101 -24 -20 -25 -20 -37 34 c-43 39 -46 39 -75 19
-32 -23 -21 -52 40 -111 60 -58 87 -62 128 -18 12 13 27 24 33 24 14 0 99
-157 89 -163 -5 -3 -192 -4 -418 -3 -344 1 -410 3 -407 15 2 8 37 78 79 156
l76 142 44 -33 c38 -29 47 -32 72 -23 17 6 46 31 67 56 20 24 40 41 43 36 3
-5 19 -18 34 -30 24 -18 32 -20 53 -11 39 18 32 56 -20 107 -35 34 -52 44 -76
43 -18 0 -33 -2 -34 -4 -1 -2 -20 -24 -44 -50 l-42 -47 -25 22 -25 22 55 100
c30 55 76 142 102 193 27 50 51 92 54 92 3 0 26 -39 52 -87z"/>
<path d="M3503 4865 c-117 -32 -204 -103 -251 -203 -23 -49 -27 -70 -27 -152
0 -81 4 -103 26 -150 71 -150 222 -231 405 -216 195 15 338 153 351 339 13
183 -97 335 -277 382 -64 17 -166 17 -227 0z m207 -147 c95 -51 124 -101 125
-208 0 -81 -14 -118 -60 -165 -104 -103 -293 -74 -361 56 -48 94 -16 239 67
297 61 42 171 52 229 20z"/>
<path d="M6799 4854 c-108 -39 -176 -101 -221 -201 -18 -39 -22 -67 -23 -143
0 -83 4 -103 27 -153 63 -135 213 -222 372 -216 145 6 259 64 325 167 44 69
60 131 57 222 -6 211 -184 360 -417 348 -34 -1 -88 -12 -120 -24z m222 -129
c96 -32 156 -131 146 -239 -11 -120 -91 -196 -212 -202 -140 -7 -229 81 -229
226 0 51 5 85 17 107 54 102 166 145 278 108z"/>
<path d="M7703 4865 c-117 -32 -197 -94 -245 -193 -30 -61 -33 -74 -33 -162 0
-81 4 -103 26 -151 70 -148 222 -230 403 -216 114 9 245 63 247 101 1 30 1
248 0 264 -1 8 -23 12 -76 12 l-75 0 0 -105 0 -105 -27 -11 c-90 -35 -204 -15
-266 48 -65 65 -85 189 -44 270 69 132 262 163 375 60 l23 -21 52 52 52 52
-31 29 c-84 79 -249 111 -381 76z"/>
<path d="M8505 4866 c-112 -28 -206 -103 -253 -204 -23 -49 -27 -70 -27 -152
1 -81 5 -103 27 -152 62 -135 198 -216 363 -216 164 0 300 81 363 215 23 50
27 71 27 153 0 82 -4 103 -27 152 -78 166 -277 252 -473 204z m184 -141 c97
-32 146 -104 146 -215 0 -102 -35 -163 -118 -207 -44 -23 -161 -23 -203 -1
-136 74 -165 272 -56 376 61 57 149 75 231 47z"/>
<path d="M2500 4865 c0 -4 61 -108 136 -232 l136 -226 -1 -128 -1 -129 85 0
85 0 0 127 0 127 127 211 c69 115 133 220 141 233 l14 22 -84 0 -84 0 -95
-159 -94 -159 -39 62 c-21 33 -47 77 -58 96 -11 19 -36 62 -57 95 l-38 60 -86
3 c-48 1 -87 0 -87 -3z"/>
<path d="M4120 4642 c0 -252 10 -315 58 -382 33 -47 102 -93 162 -108 77 -19
197 -10 260 21 64 30 77 40 112 87 50 66 58 121 58 377 l0 233 -82 0 -83 0 -1
-233 c-1 -207 -3 -236 -20 -271 -30 -61 -64 -81 -138 -81 -77 0 -110 20 -137
81 -18 39 -20 68 -20 274 l-1 230 -84 0 -84 0 0 -228z"/>
<path d="M4943 4511 l0 -361 83 0 84 0 0 100 0 100 78 0 77 0 53 -78 c91 -134
75 -123 176 -120 l88 3 -81 113 c-44 61 -76 112 -71 112 4 0 31 21 59 46 41
36 54 57 67 101 39 136 -15 258 -141 314 -45 21 -69 23 -261 27 l-211 4 0
-361z m390 206 c60 -26 84 -105 52 -167 -24 -47 -67 -63 -177 -67 l-98 -3 0
124 c0 111 2 125 18 128 42 9 170 -1 205 -15z"/>
<path d="M5983 4510 l0 -360 264 0 264 0 -3 68 -3 67 -170 1 c-93 1 -173 2
-177 3 -5 0 -8 132 -8 291 l0 290 -84 0 -84 0 1 -360z"/>
</g>
</svg>
