<svg version="1.2" xmlns="http://www.w3.org/2000/svg" viewBox="0 0 901 138" width="901" height="138">
	<title>Shape 1</title>
	<style>
		tspan { white-space:pre } 
		.t0 { font-size: 103px;fill: #ffffff;font-weight: 700;font-family: "Montserrat-Bold", "Montserrat" } 
		.s1 { fill: #ffffff } 
	</style>
	<text id="YOUR LOGO " style="transform: matrix(1,0,0,1,250.998,104.58)" >
		<tspan x="0" y="0" class="t0">YOUR LOGO
</tspan>
	</text>
	<path id="Shape 1" fill-rule="evenodd" class="s1" d="m181.9 128.7l-20.5-38.7c-0.8-1.6-2.3-2.5-4.1-2.5-0.7 0-1.4 0.2-2.1 0.5-2.3 1.2-3.1 4-1.9 6.3l18.2 34.5h-64.9c-1.8-3.5-7.9-15.2-29.2-55.6l2.5-4.7 2.8 3.7c1.1 1.5 2.9 2.4 4.8 2.5h0.3c1.8 0 3.5-0.8 4.7-2.1l9.8-11 20.5 24.2c1.2 1.4 2.9 2.2 4.8 2.3 1.9 0 3.6-0.8 4.9-2.3l10.1-11.8 3.4 6.6c0.8 1.5 2.4 2.5 4.1 2.5 0.8 0 1.5-0.2 2.2-0.6 1.1-0.5 1.9-1.5 2.2-2.7 0.4-1.2 0.3-2.4-0.3-3.5l-38.6-72.9c-1.1-2.1-3.2-3.4-5.6-3.4-2.4 0-4.5 1.3-5.6 3.4l-32.2 60-12.4-23.4c-0.8-1.5-2.2-2.6-3.9-3.1q-0.8-0.2-1.7-0.2h-0.4-0.4l-0.5 0.1c-1.8 0.4-3.4 1.5-4.3 3.2l-47.6 88.6c-1 2-1 4.4 0.2 6.3 1.2 1.9 3.2 3.1 5.5 3.1h169.6c2.2 0 4.3-1.2 5.4-3.1 1.2-1.9 1.3-4.2 0.2-6.2zm-71.9-116.3l27.9 52.8-10.2 12.1-20.5-24.1c-1.2-1.4-2.9-2.2-4.8-2.3h-0.1c-1.8 0-3.5 0.8-4.7 2.1l-9.7 10.8-3.2-4.2zm-98.6 116.3l17-31.7 5.8 4.8c1.1 1 2.6 1.5 4.1 1.5 1.8 0 3.5-0.8 4.7-2.1l7.3-8.2 4.2 4.1c0.8 0.8 2 1.3 3.2 1.3 1.2 0 2.4-0.5 3.3-1.4 1.8-1.8 1.8-4.7 0-6.5l-6.3-6.2c-1.2-1.2-2.8-1.8-4.7-1.8-1.7 0-3.4 0.8-4.5 2.1l-7.5 8.4-5.1-4.3 21.3-39.7 28.3 53.5-4.9 4.5-5.4-5.4c-0.9-0.8-2.1-1.3-3.3-1.3-1.2 0-2.4 0.5-3.3 1.3-1.8 1.8-1.7 4.8 0.1 6.6l7.3 7.3c1.2 1.2 2.8 1.8 4.5 1.8 1.6 0 3.2-0.6 4.3-1.7l5.1-4.7 9.5 17.8z"/>
</svg>