<svg version="1.2" xmlns="http://www.w3.org/2000/svg" viewBox="0 0 24 25" width="24" height="25">
	<title>Shape</title>
	<style>
		.s0 { fill: #ffae47 } 
	</style>
	<path id="Shape" fill-rule="evenodd" class="s0" d="m21.8 22.2c-0.8 0.8-2.1 0.8-2.8 0l-3.5-3.4c-1.5 0.9-3.2 1.4-5 1.4-5.1 0-9.2-4.1-9.2-9.2 0-5.1 4.1-9.2 9.2-9.2 5.1 0 9.2 4.1 9.2 9.2 0 1.8-0.5 3.5-1.4 5l3.5 3.4c0.7 0.8 0.7 2.1 0 2.8zm-11.3-17.8c-3.6 0-6.6 2.9-6.6 6.6 0 3.6 3 6.6 6.6 6.6 3.7 0 6.6-3 6.6-6.6 0-3.7-2.9-6.6-6.6-6.6z"/>
</svg>